PathFileType	4	(X/Y/Z)	C:\Users\dbl\Desktop\20210112(1)\20210112\bx_y_0_1802.trc
DataRate	CameraRate	NumFrames	NumMarkers	Units	OrigDataRate	OrigDataStartFrame	OrigNumFrames
50.00	50.00	       5	43	mm	50.00	141	       375
Frame#	Time	Top.Head			R.Acromium			L.Acromium			Sternum			R.ASIS			L.ASIS			V.Sacral			R.Thigh.Upper			R.Thigh.Front			R.Thigh.Rear			R.Knee.Lat			R.Knee.Med			R.Shank.Upper			R.Shank.Front			R.Shank.Rear			R.Ankle.Lat			R.Midfoot.Lat			R.Toe.Lat			R.Toe.Tip			R.Toe.Med			R.Ankle.Med			R.Midfoot.Sup			R.Heel			L.Thigh.Upper			L.Thigh.Front			L.Thigh.Rear			L.Knee.Lat			L.Knee.Med			L.Shank.Upper			L.Shank.Front			L.Shank.Rear			L.Ankle.Lat			L.Midfoot.Lat			L.Toe.Lat			L.Toe.Tip			L.Toe.Med			L.Ankle.Med			L.Midfoot.Sup			L.Heel			origin1 front left			origin2 front right			origin 3 back right			origin 4 back leftt			
		X1	Y1	Z1	X2	Y2	Z2	X3	Y3	Z3	X4	Y4	Z4	X5	Y5	Z5	X6	Y6	Z6	X7	Y7	Z7	X8	Y8	Z8	X9	Y9	Z9	X10	Y10	Z10	X11	Y11	Z11	X12	Y12	Z12	X13	Y13	Z13	X14	Y14	Z14	X15	Y15	Z15	X16	Y16	Z16	X17	Y17	Z17	X18	Y18	Z18	X19	Y19	Z19	X20	Y20	Z20	X21	Y21	Z21	X22	Y22	Z22	X23	Y23	Z23	X24	Y24	Z24	X25	Y25	Z25	X26	Y26	Z26	X27	Y27	Z27	X28	Y28	Z28	X29	Y29	Z29	X30	Y30	Z30	X31	Y31	Z31	X32	Y32	Z32	X33	Y33	Z33	X34	Y34	Z34	X35	Y35	Z35	X36	Y36	Z36	X37	Y37	Z37	X38	Y38	Z38	X39	Y39	Z39	X40	Y40	Z40	X41	Y41	Z41	X42	Y42	Z42	X43	Y43	Z43	

141	2.800	-332.29980	104.70393	1422.36890	-485.73370	-78.72870	1155.58569	-489.23889	280.80325	1178.35278	-512.01428	85.74102	1119.74585	-774.34973	1.40839	839.95154	-781.15454	213.61707	892.90594	-960.29321	91.83554	903.09967	-755.41351	-78.65894	737.05573	-666.07135	-18.55921	751.46930	-674.44269	-65.20366	622.27277	-590.08112	-49.69115	561.11621	-549.05884	61.74822	541.50378	-579.48676	-47.42440	520.02325	-540.92273	-0.31370	466.95306	-648.27332	-46.52015	461.26337	-754.92383	0.16448	210.84583	-664.20612	-64.94207	164.55342	-625.10901	-78.60487	158.32526	-561.05908	-44.35827	163.17500	-601.75635	19.40540	165.42444	-701.76251	82.58666	208.05550	-672.42053	58.50879	153.36882	-790.22937	62.79276	178.35796	-750.97150	292.04980	753.79529	-666.72998	235.98029	759.84241	-617.62366	281.82843	575.45801	-611.39911	279.38000	566.93274	-535.83594	179.30560	538.74823	-582.88281	282.50012	526.74939	-531.92310	238.48633	478.64496	-638.88538	280.40924	469.38812	-760.53412	221.77902	205.67899	-666.97443	297.46930	161.49574	-629.56793	305.63052	163.36920	-559.28790	262.74478	164.37433	-593.68646	222.49161	173.91634	-696.94855	151.89989	207.93507	-673.63159	171.57880	153.92268	-790.79059	167.22766	188.68288	-528.02631	304.15424	146.53343	-517.51404	-72.99914	142.99489	-876.15076	-78.51846	141.17223	-882.61951	296.04578	144.62543	
142	2.820	-330.45068	105.49286	1413.12756	-483.47681	-78.07819	1146.49805	-486.82800	281.46805	1169.39502	-510.69440	85.69757	1115.61755	-775.13147	2.07987	834.88159	-782.43616	213.45418	890.20361	-960.71161	91.91998	898.00934	-755.64600	-78.60526	733.74310	-666.91101	-18.21209	748.99487	-673.46655	-65.40118	620.07947	-588.42242	-49.59264	559.76318	-547.43512	62.06908	540.70514	-577.54987	-47.27822	518.95758	-539.23071	0.09992	466.02570	-646.46503	-46.32594	460.41330	-754.57227	0.61256	210.90349	-664.09326	-64.54288	164.79550	-625.10645	-78.34541	158.60400	-561.12817	-44.38785	163.26604	-601.64044	19.43998	165.31293	-701.62653	83.01330	207.73041	-672.20221	58.86797	153.19321	-790.14697	63.17095	178.32527	-751.10840	292.12274	750.00745	-667.68402	235.84743	757.04889	-610.11072	280.54947	567.46729	-609.65540	279.59854	565.27222	-533.96094	179.66068	537.72125	-581.02283	283.04279	525.46881	-530.00800	238.99547	477.47333	-637.14966	280.88724	468.42395	-760.33301	221.59595	205.70514	-667.04559	297.35672	161.59564	-629.60852	305.60825	163.40082	-559.28699	262.83636	164.33249	-593.64978	222.49216	173.89873	-696.71814	151.82129	207.65640	-673.60004	171.41617	153.85419	-790.59467	167.03909	188.75699	-528.04254	304.22137	146.52191	-517.53815	-72.92435	142.99304	-876.13318	-78.52869	141.08086	-882.61487	296.07578	144.59969	
143	2.840	-328.72647	106.24079	1403.94092	-481.25830	-77.40924	1137.47437	-484.43628	282.09717	1160.35327	-509.41025	85.66545	1111.64368	-775.90948	2.72690	830.05414	-783.66229	213.28613	887.63043	-961.15692	92.03722	892.86377	-755.86658	-78.68662	730.45996	-667.72522	-17.95871	746.51392	-672.57477	-65.73093	617.83569	-586.79321	-49.65200	558.43707	-545.86310	62.23448	539.85889	-575.72760	-47.29491	517.88367	-537.54443	0.36660	465.14890	-644.73407	-46.31496	459.60861	-754.29486	0.97070	210.90993	-663.99280	-64.20109	164.99335	-625.12225	-78.03044	158.87428	-561.18945	-44.40662	163.31848	-601.49524	19.50458	165.23427	-701.53369	83.41660	207.33807	-672.01178	59.23294	152.92487	-790.08093	63.58096	178.41222	-751.31909	292.21259	746.26086	-668.60638	235.77003	754.28839	-606.33093	280.39368	563.33557	-607.97418	279.81027	563.65137	-532.14545	179.95801	536.74841	-579.17920	283.52423	524.20068	-528.17639	239.47884	476.37350	-635.46252	281.40338	467.53879	-760.12933	221.41872	205.80228	-667.10583	297.25623	161.71892	-629.65912	305.51791	163.34344	-559.27728	262.90671	164.27144	-593.62891	222.47412	173.84605	-696.56647	151.79105	207.53836	-673.54803	171.30124	153.76340	-790.40283	166.82072	188.78995	-528.05963	304.28574	146.49638	-517.53546	-72.83144	142.98932	-876.07031	-78.59524	141.04779	-882.64343	296.10327	144.57109	
144	2.860	-327.02145	106.97855	1394.78491	-479.12360	-76.72060	1128.52795	-482.14948	282.69113	1151.30859	-508.16187	85.64419	1107.82385	-776.68219	3.35114	825.46533	-784.83313	213.11304	885.18512	-961.67682	92.22936	887.71143	-756.05658	-78.89342	727.23254	-668.52582	-17.75135	744.06458	-671.79431	-66.09897	615.56512	-585.21320	-49.81322	557.14648	-544.41907	62.30652	538.98822	-574.00464	-47.39438	516.82660	-535.93048	0.54100	464.28302	-643.12665	-46.40516	458.82809	-754.07867	1.24290	210.90117	-663.89111	-63.91076	165.18146	-625.16510	-77.66531	159.09523	-561.25220	-44.42560	163.33228	-601.31616	19.62413	165.17680	-701.40552	83.86918	206.93095	-671.86951	59.56178	152.60384	-790.04053	64.01584	178.60161	-751.55206	292.31363	742.54810	-669.30408	235.84482	751.58459	-604.67834	280.83661	561.33130	-606.35571	280.01785	562.07281	-530.34399	180.30396	535.76404	-577.34961	284.05170	522.93250	-526.47046	239.92293	475.25787	-633.77582	281.97543	466.68692	-759.91565	221.23962	205.93668	-667.12897	297.17307	161.84824	-629.71802	305.36469	163.23763	-559.23254	262.98001	164.20148	-593.60529	222.44440	173.75253	-696.38000	151.74799	207.54053	-673.46625	171.18599	153.63408	-790.21771	166.55507	188.83421	-528.06860	304.31989	146.47153	-517.51947	-72.75951	142.98186	-876.00848	-78.68823	141.09927	-882.68781	296.11884	144.55035	
145	2.880	-325.24161	107.73066	1385.67004	-477.11981	-76.04042	1119.69702	-479.99878	283.27850	1142.34680	-506.94934	85.63334	1104.15796	-777.44843	3.95249	821.11298	-785.94885	212.93504	882.86646	-962.23328	92.45737	882.63531	-756.23322	-79.14449	724.05164	-669.32721	-17.52937	741.67261	-671.08850	-66.45823	613.34357	-583.71484	-49.99728	555.89685	-543.06860	62.35164	538.19458	-572.34955	-47.50698	515.80609	-534.42786	0.68941	463.39426	-641.62720	-46.52944	458.09021	-753.88403	1.46423	210.90219	-663.76178	-63.64636	165.38603	-625.22137	-77.27230	159.27779	-561.32397	-44.44574	163.30492	-601.13947	19.78040	165.12035	-701.23560	84.41946	206.56519	-671.78796	59.81749	152.31128	-789.98920	64.44370	178.76711	-751.72662	292.45367	738.90924	-669.70099	236.08554	748.95752	-603.66101	281.43204	559.97186	-604.80035	280.22391	560.53931	-528.56378	180.72539	534.72705	-575.54541	284.66583	521.65741	-524.84668	240.34586	474.10681	-632.11859	282.50742	465.77325	-759.68323	221.03719	206.04240	-667.10126	297.09573	161.96783	-629.77515	305.20602	163.13676	-559.14624	263.08429	164.13284	-593.57208	222.41818	173.64958	-696.16180	151.65565	207.53192	-673.37866	171.03375	153.46057	-790.04443	166.24904	188.94586	-528.05652	304.31387	146.46773	-517.50293	-72.73244	142.98399	-875.96741	-78.76830	141.19911	-882.72101	296.11771	144.54877	
